<svg id="svg" fill="#000000" stroke="#000000" width="200px" height="200px" version="1.1" viewBox="144 144 512 512" xmlns="http://www.w3.org/2000/svg" data-darkreader-inline-fill="" data-darkreader-inline-stroke="" style="--darkreader-inline-fill: var(--darkreader-background-000000, #000000); --darkreader-inline-stroke: var(--darkreader-text-000000, #e8e6e3);">
    <g id="IconSvg_bgCarrier" stroke-width="0"></g>
    <g id="IconSvg_tracerCarrier" stroke-linecap="round" stroke-linejoin="round" stroke="#CCCCCC" data-darkreader-inline-stroke="" style="--darkreader-inline-stroke: var(--darkreader-text-cccccc, #c8c3bc);"></g>
     <g id="IconSvg_iconCarrier">
      <g xmlns="http://www.w3.org/2000/svg">
  <path d="m289.79 510.21c-29.227 0-57.262-11.613-77.93-32.281s-32.277-48.699-32.277-77.926c0-29.23 11.609-57.262 32.277-77.93 20.668-20.668 48.703-32.281 77.93-32.281 29.23 0 57.262 11.613 77.93 32.281 20.668 20.668 32.281 48.699 32.281 77.93 0 29.227-11.613 57.258-32.281 77.926s-48.699 32.281-77.93 32.281zm0-188.93c-20.875 0-40.898 8.293-55.664 23.059-14.762 14.762-23.055 34.785-23.055 55.664 0 20.875 8.293 40.898 23.055 55.664 14.766 14.762 34.789 23.055 55.664 23.055 20.879 0 40.902-8.293 55.664-23.055 14.762-14.766 23.059-34.789 23.059-55.664 0-20.879-8.2969-40.902-23.059-55.664-14.762-14.766-34.785-23.059-55.664-23.059z"></path>
  <path d="m321.28 384.25h-15.742v-15.742c0-5.625-3-10.824-7.8711-13.637-4.875-2.8125-10.875-2.8125-15.746 0-4.8711 2.8125-7.8711 8.0117-7.8711 13.637v15.742h-15.746c-5.625 0-10.82 3-13.633 7.8711s-2.8125 10.875 0 15.746 8.0078 7.8711 13.633 7.8711h15.746v15.746c0 5.625 3 10.82 7.8711 13.633 4.8711 2.8125 10.871 2.8125 15.746 0 4.8711-2.8125 7.8711-8.0078 7.8711-13.633v-15.746h15.742c5.625 0 10.824-3 13.637-7.8711s2.8125-10.875 0-15.746-8.0117-7.8711-13.637-7.8711z"></path>
  <path d="m604.67 415.74h-173.18c-5.625 0-10.824-3-13.637-7.8711s-2.8125-10.875 0-15.746 8.0117-7.8711 13.637-7.8711h173.18c5.625 0 10.82 3 13.633 7.8711s2.8125 10.875 0 15.746-8.0078 7.8711-13.633 7.8711z"></path>
  <path d="m604.67 321.28h-204.67c-5.625 0-10.824-3-13.637-7.8711s-2.8125-10.871 0-15.742c2.8125-4.875 8.0117-7.875 13.637-7.875h204.67c5.625 0 10.82 3 13.633 7.875 2.8125 4.8711 2.8125 10.871 0 15.742s-8.0078 7.8711-13.633 7.8711z"></path>
  <path d="m604.67 510.21h-204.67c-5.625 0-10.824-3-13.637-7.8711-2.8125-4.8711-2.8125-10.875 0-15.746s8.0117-7.8711 13.637-7.8711h204.67c5.625 0 10.82 3 13.633 7.8711s2.8125 10.875 0 15.746c-2.8125 4.8711-8.0078 7.8711-13.633 7.8711z"></path>
 </g>

      </g>
      </svg>