<?xml version="1.0" encoding="UTF-8"?>
<!-- The Best Svg Icon site in the world: iconSvg.co, Visit us! https://iconsvg.co -->
<svg fill="#000000" width="800px" height="800px" version="1.1" viewBox="144 144 512 512" xmlns="http://www.w3.org/2000/svg">
 <g>
  <path d="m559.8 186.47h-319.61c-29.625 0-53.73 24.098-53.73 53.719v319.62c0 29.625 24.105 53.719 53.73 53.719h319.61c29.625 0 53.73-24.098 53.73-53.719l-0.003906-319.62c0-29.621-24.105-53.719-53.727-53.719zm34.578 373.34c0 19.066-15.504 34.57-34.578 34.57h-319.61c-19.074 0-34.578-15.504-34.578-34.57l-0.003907-319.62c0-19.066 15.504-34.57 34.578-34.57h319.61c19.074 0 34.578 15.504 34.578 34.57z"/>
  <path d="m531.68 300.24c-3.0469-1.6641-6.8242-1.5703-9.7617 0.35547l-127.38 81.867v-73.812c0-3.5078-1.9062-6.7227-4.9922-8.4062-3.0664-1.6641-6.8242-1.5703-9.7617 0.35547l-142.12 91.344c-2.7305 1.7578-4.3945 4.7969-4.3945 8.0508 0 3.2539 1.6641 6.293 4.3945 8.0508l142.11 91.348c1.5703 1.0195 3.3867 1.5234 5.1797 1.5234 1.5703 0 3.1602-0.39453 4.582-1.168 3.0859-1.6836 4.9922-4.8984 4.9922-8.4062v-73.812l127.38 81.863c1.5703 1.0195 3.3867 1.5234 5.1797 1.5234 1.5703 0 3.1602-0.39453 4.582-1.168 3.0859-1.6836 4.9922-4.8984 4.9922-8.4062l0.003907-182.7c0-3.5039-1.9062-6.7227-4.9922-8.4062zm-156.29 173.57-114.83-73.816 114.83-73.816zm142.13 0-114.85-73.816 114.85-73.816z"/>
 </g>
</svg>