<?xml version="1.0" encoding="UTF-8"?>
<!-- The Best Svg Icon site in the world: iconSvg.co, Visit us! https://iconsvg.co -->
<svg fill="#000000" width="800px" height="800px" version="1.1" viewBox="144 144 512 512" xmlns="http://www.w3.org/2000/svg">
 <g>
  <path d="m564.03 180.84h-328.07c-30.406 0-55.129 24.734-55.129 55.137v328.06c0 30.395 24.723 55.129 55.129 55.129h328.07c30.406 0 55.129-24.734 55.129-55.129v-328.06c0-30.406-24.727-55.137-55.133-55.137zm35.477 383.2c0 19.559-15.914 35.473-35.473 35.473l-328.07 0.003906c-19.559 0-35.473-15.914-35.473-35.473v-328.06c0-19.57 15.914-35.484 35.473-35.484h328.07c19.559 0 35.473 15.914 35.473 35.484z"/>
  <path d="m424.87 297.98c-3.0156-1.9688-6.9102-2.0742-10.02-0.36328-3.168 1.7266-5.125 5.0273-5.125 8.6289v75.762l-130.74-84.027c-3.0508-1.9688-6.8906-2.0742-10.02-0.36328-3.168 1.7266-5.125 5.0273-5.125 8.6289v187.52c0 3.5977 1.957 6.9023 5.125 8.6289 1.4609 0.79688 3.0898 1.1992 4.7031 1.1992 1.8438 0 3.7031-0.51953 5.3164-1.5664l130.74-84.027v75.762c0 3.5977 1.957 6.9023 5.125 8.6289 1.4609 0.79688 3.0898 1.1992 4.7031 1.1992 1.8438 0 3.7031-0.51953 5.3164-1.5664l145.87-93.758c2.8008-1.8047 4.5117-4.9258 4.5117-8.2617 0-3.3398-1.707-6.4609-4.5117-8.2617zm-141.38 177.79v-151.53l117.88 75.766zm145.88 0v-151.53l117.86 75.766z"/>
 </g>
</svg>