<?xml version="1.0" encoding="UTF-8"?>
<!-- The Best Svg Icon site in the world: iconSvg.co, Visit us! https://iconsvg.co -->
<svg fill="#000000" width="800px" height="800px" version="1.1" viewBox="144 144 512 512" xmlns="http://www.w3.org/2000/svg">
 <g>
  <path d="m564.03 619.17h-328.06c-30.406 0-55.137-24.734-55.137-55.137l-0.003906-328.06c0-30.406 24.734-55.137 55.137-55.137h328.06c30.406 0 55.137 24.734 55.137 55.137v328.06c0.007813 30.406-24.727 55.141-55.133 55.141zm-328.06-418.68c-19.57 0-35.484 15.914-35.484 35.484v328.06c0 19.57 15.914 35.484 35.484 35.484h328.06c19.57 0 35.484-15.914 35.484-35.484v-328.06c0-19.57-15.914-35.484-35.484-35.484z"/>
  <path d="m375.38 495.62h-54.859c-5.4336 0-9.8281-4.3945-9.8281-9.8281v-171.6c0-5.4336 4.3945-9.8281 9.8281-9.8281h54.859c5.4336 0 9.8281 4.3945 9.8281 9.8281v171.6c0 5.4336-4.3945 9.8281-9.8281 9.8281zm-45.031-19.656h35.203l0.003906-151.94h-35.203z"/>
  <path d="m479.47 495.62h-54.859c-5.4336 0-9.8281-4.3945-9.8281-9.8281v-171.6c0-5.4336 4.3945-9.8281 9.8281-9.8281h54.859c5.4336 0 9.8281 4.3945 9.8281 9.8281v171.6c0 5.4336-4.3945 9.8281-9.8281 9.8281zm-45.031-19.656h35.203v-151.94h-35.203z"/>
 </g>
</svg>