<?xml version="1.0" encoding="UTF-8"?>
<!-- The Best Svg Icon site in the world: iconSvg.co, Visit us! https://iconsvg.co -->
<svg fill="#000000" width="800px" height="800px" version="1.1" viewBox="144 144 512 512" xmlns="http://www.w3.org/2000/svg">
 <g>
  <path d="m559.81 613.53h-319.62c-29.625 0-53.719-24.098-53.719-53.719l-0.003906-319.62c0-29.625 24.098-53.719 53.719-53.719h319.62c29.613 0 53.711 24.098 53.711 53.719v319.62c0.003907 29.625-24.094 53.723-53.707 53.723zm-319.62-407.91c-19.066 0-34.57 15.504-34.57 34.57v319.62c0 19.066 15.504 34.57 34.57 34.57h319.62c19.059 0 34.559-15.504 34.559-34.57v-319.62c0-19.066-15.504-34.57-34.559-34.57h-319.62z"/>
  <path d="m341.68 500.93c-1.582 0-3.1523-0.39453-4.5898-1.168-3.0664-1.6836-4.9844-4.8984-4.9844-8.4062v-182.7c0-3.5078 1.918-6.7227 4.9844-8.4062 3.0742-1.6641 6.8086-1.5625 9.7695 0.35547l142.12 91.348c2.7383 1.7578 4.3945 4.7969 4.3945 8.0508s-1.6562 6.293-4.3945 8.0508l-142.12 91.348c-1.5781 1.0195-3.375 1.5234-5.1797 1.5234zm9.5781-174.74v147.63l114.84-73.816z"/>
 </g>
</svg>