<?xml version="1.0" encoding="UTF-8"?>
<!-- The Best Svg Icon site in the world: iconSvg.co, Visit us! https://iconsvg.co -->
<svg fill="#000000" width="800px" height="800px" version="1.1" viewBox="144 144 512 512" xmlns="http://www.w3.org/2000/svg">
 <g>
  <path d="m559.81 186.47h-319.63c-29.625 0-53.711 24.098-53.711 53.719v319.62c0 29.625 24.086 53.719 53.711 53.719h319.63c29.625 0 53.711-24.098 53.711-53.719v-319.62c0-29.621-24.086-53.719-53.711-53.719zm34.562 373.34c0 19.066-15.504 34.57-34.559 34.57h-319.63c-19.059 0-34.559-15.504-34.559-34.57v-319.62c0-19.066 15.504-34.57 34.559-34.57h319.63c19.059 0 34.559 15.504 34.559 34.57z"/>
  <path d="m517.49 300.61h-79.875c-5.293 0-9.5742 4.2812-9.5742 9.5742 0 5.293 4.2812 9.5742 9.5742 9.5742h79.875c7.0703 0 12.828 5.7617 12.828 12.84v117.2c0 7.0781-5.7617 12.84-12.828 12.84h-61.867l11.637-9.1836c4.1523-3.2812 4.8633-9.3047 1.5898-13.445-3.293-4.1602-9.3125-4.8711-13.445-1.5898l-33.289 26.277c-0.13281 0.10547-0.18359 0.27344-0.3125 0.38672-0.73438 0.64062-1.293 1.4062-1.8008 2.2422-0.19531 0.32031-0.46484 0.57812-0.62109 0.92188-0.55859 1.2188-0.91406 2.5391-0.91406 3.9688 0 1.4258 0.35156 2.75 0.91406 3.9648 0.16016 0.34766 0.43359 0.61328 0.63281 0.94141 0.50781 0.82812 1.0625 1.5898 1.7891 2.2266 0.125 0.10938 0.17969 0.28125 0.3125 0.38672l33.289 26.266c1.7578 1.3828 3.8516 2.0586 5.9297 2.0586 2.8242 0 5.6289-1.2539 7.5195-3.6484 3.2734-4.1523 2.5625-10.172-1.5898-13.445l-11.629-9.1719h61.863c17.637 0 31.98-14.355 31.98-31.988l-0.007813-117.2c-0.003906-17.637-14.348-31.988-31.98-31.988z"/>
  <path d="m365.26 429.35c-20.336 0-37.32 14.262-41.695 33.277h-46.219c-7.0859 0-12.848-5.7617-12.848-12.84l-0.003906-117.19c0-7.0781 5.7617-12.84 12.848-12.84h60.336l-11.637 9.1836c-4.1523 3.2812-4.8633 9.3047-1.5898 13.445 1.8906 2.3945 4.6953 3.6484 7.5195 3.6484 2.0781 0 4.1719-0.67188 5.9297-2.0586l33.289-26.277c0.13281-0.10547 0.18359-0.27344 0.3125-0.38672 0.73438-0.64062 1.293-1.4062 1.8008-2.2422 0.19531-0.32031 0.46484-0.57812 0.62109-0.92188 0.55859-1.2188 0.91406-2.5391 0.91406-3.9688 0-1.4258-0.35156-2.75-0.91406-3.9648-0.16016-0.34766-0.43359-0.61328-0.63281-0.94141-0.50781-0.82812-1.0625-1.5898-1.7891-2.2266-0.125-0.10938-0.17969-0.28125-0.3125-0.38672l-33.289-26.266c-4.1328-3.2539-10.156-2.5508-13.445 1.5898-3.2734 4.1523-2.5625 10.172 1.5898 13.445l11.629 9.1719h-60.328c-17.637 0-32 14.355-32 31.988v117.2c0 17.637 14.363 31.988 32 31.988h46.219c4.375 19.02 21.359 33.277 41.695 33.277 23.621 0 42.844-19.227 42.844-42.855 0-23.621-19.227-42.844-42.844-42.844zm0 66.559c-13.074 0-23.715-10.633-23.715-23.703 0-13.074 10.641-23.703 23.715-23.703s23.695 10.633 23.695 23.703c-0.003906 13.07-10.625 23.703-23.695 23.703z"/>
  <path d="m365.26 457.1c-5.293 0-9.5742 4.2812-9.5742 9.5742v12.277c0 5.293 4.2812 9.5742 9.5742 9.5742s9.5742-4.2812 9.5742-9.5742v-12.273c0-5.293-4.2812-9.5781-9.5742-9.5781z"/>
 </g>
</svg>