<svg id="svg" fill="#000000" stroke="#000000" width="200px" height="200px" version="1.1" viewBox="144 144 512 512" xmlns="http://www.w3.org/2000/svg" data-darkreader-inline-fill="" data-darkreader-inline-stroke="" style="--darkreader-inline-fill: var(--darkreader-background-000000, #000000); --darkreader-inline-stroke: var(--darkreader-text-000000, #e8e6e3);">
    <g id="IconSvg_bgCarrier" stroke-width="0"></g>
    <g id="IconSvg_tracerCarrier" stroke-linecap="round" stroke-linejoin="round" stroke="#CCCCCC" data-darkreader-inline-stroke="" style="--darkreader-inline-stroke: var(--darkreader-text-cccccc, #c8c3bc);"></g>
     <g id="IconSvg_iconCarrier">
      <path xmlns="http://www.w3.org/2000/svg" d="m400 197.29c-111.79 0-202.71 90.922-202.71 202.71 0 111.78 90.922 202.7 202.71 202.7 111.78 0 202.7-90.922 202.7-202.7 0-111.79-90.922-202.71-202.7-202.71zm0 11.809c105.09 0 190.89 85.805 190.89 190.9 0 105.09-85.805 190.89-190.89 190.89-105.09 0-190.9-85.805-190.9-190.89 0-105.09 85.805-190.9 190.9-190.9zm-55.496 92.105c-17.32 0-31.488 14.168-31.488 31.488 0 17.316 14.168 31.488 31.488 31.488 10.23 0 19.285-4.7227 25.191-12.203l78.719 39.363c-0.78516 2.7539-1.1836 5.5078-1.1836 8.6562s0.39844 5.8984 1.1836 8.6562l-78.719 39.359c-5.5117-7.8711-14.566-12.594-24.801-12.594-17.32 0-31.488 14.172-31.488 31.488 0 17.32 14.168 31.488 31.488 31.488 17.316 0 31.488-14.168 31.488-31.488 0-3.1484-0.39844-5.8984-1.1836-8.6562l78.719-39.359c5.9062 7.4766 14.961 12.199 25.191 12.199 17.32 0 31.488-14.168 31.488-31.488 0-17.316-14.559-31.094-31.879-31.094-10.234 0-19.289 4.7188-25.191 12.199l-78.723-39.359c0.78906-2.7578 1.1875-5.5078 1.1875-8.6562 0-17.32-14.172-31.488-31.488-31.488z"></path>

      </g>
      </svg>