<?xml version="1.0" encoding="UTF-8"?>
<!-- The Best Svg Icon site in the world: iconSvg.co, Visit us! https://iconsvg.co -->
<svg fill="#000000" width="800px" height="800px" version="1.1" viewBox="144 144 512 512" xmlns="http://www.w3.org/2000/svg">
 <g>
  <path d="m559.8 613.53h-319.62c-29.613 0-53.711-24.098-53.711-53.719v-319.62c0-29.625 24.098-53.719 53.711-53.719h319.62c29.625 0 53.719 24.098 53.719 53.719v319.62c0.003907 29.625-24.094 53.723-53.715 53.723zm-319.62-407.91c-19.059 0-34.559 15.504-34.559 34.57v319.62c0 19.066 15.504 34.57 34.559 34.57h319.62c19.066 0 34.57-15.504 34.57-34.57l0.003906-319.62c0-19.066-15.504-34.57-34.57-34.57h-319.62z"/>
  <path d="m489.46 493.16h-178.92c-5.293 0-9.5742-4.2812-9.5742-9.5742v-167.18c0-5.293 4.2812-9.5742 9.5742-9.5742h178.92c5.293 0 9.5742 4.2812 9.5742 9.5742v167.18c0 5.293-4.2812 9.5742-9.5742 9.5742zm-169.34-19.148h159.77v-148.03h-159.77z"/>
 </g>
</svg>