<?xml version="1.0" encoding="UTF-8"?>
<!-- The Best Svg Icon site in the world: iconSvg.co, Visit us! https://iconsvg.co -->
<svg fill="#000000" width="800px" height="800px" version="1.1" viewBox="144 144 512 512" xmlns="http://www.w3.org/2000/svg">
 <g>
  <path d="m431.46 314.94-64.555 27.93c-3.5898 1.5547-5.9219 5.1055-5.9219 9.0234v24.723c0 5.4336 4.3945 9.8281 9.8281 9.8281s9.8281-4.3945 9.8281-9.8281v-18.266l58.633-25.367c4.9805-2.1602 7.2656-7.9453 5.1172-12.93-2.1523-4.9688-7.9219-7.2891-12.93-5.1133z"/>
  <path d="m485.87 337.48v-82.934c0-3.332-1.6914-6.4414-4.4922-8.2539-2.793-1.8047-6.3047-2.082-9.3594-0.71094l-143.98 64.613h-32.293c-19.34 0-35.078 15.73-35.078 35.07v109.47c0 19.34 15.738 35.07 35.078 35.07h32.293l143.98 64.613c1.2852 0.57422 2.6602 0.86328 4.0234 0.86328 1.8633 0 3.7227-0.52734 5.3359-1.5742 2.8008-1.8164 4.4922-4.9258 4.4922-8.2539v-82.934c30.246-4.7344 53.457-30.965 53.457-62.52 0-31.559-23.215-57.785-53.457-62.523zm-205.55 117.26v-109.47c0-8.5039 6.918-15.414 15.422-15.414h24.562v140.3h-24.562c-8.5 0-15.422-6.9102-15.422-15.414zm185.89 75.535-126.25-56.656v-147.23l126.25-56.656zm19.656-87.77v-85.004c19.34 4.4688 33.805 21.82 33.805 42.504-0.003906 20.68-14.465 38.031-33.805 42.5z"/>
  <path d="m564.03 180.84h-328.06c-30.406 0-55.137 24.734-55.137 55.129v328.07c0 30.395 24.734 55.129 55.137 55.129h328.06c30.395 0 55.129-24.734 55.129-55.129l0.003906-328.07c0-30.398-24.734-55.129-55.133-55.129zm35.477 383.2c0 19.559-15.914 35.473-35.473 35.473l-328.06 0.003906c-19.57 0-35.484-15.914-35.484-35.473v-328.07c0-19.559 15.914-35.473 35.484-35.473h328.06c19.559 0 35.473 15.914 35.473 35.473z"/>
 </g>
</svg>